<svg xmlns="http://www.w3.org/2000/svg" width="126" height="53" viewBox="0 0 126 53">
  <defs>
    <style>
      .cls-1 {
        fill: #fe3e57;
        fill-rule: evenodd;
      }
    </style>
  </defs>
  <path class="cls-1" d="M1587.52,5683.26a1.74,1.74,0,1,1,1.74,1.74A1.741,1.741,0,0,1,1587.52,5683.26Zm-13.71,0a1.74,1.74,0,1,1,1.74,1.74A1.741,1.741,0,0,1,1573.81,5683.26Zm-13.49,0a1.74,1.74,0,1,1,1.74,1.74A1.741,1.741,0,0,1,1560.32,5683.26Zm-13.71,0a1.74,1.74,0,1,1,1.74,1.74A1.741,1.741,0,0,1,1546.61,5683.26Zm-13.5,0a1.745,1.745,0,1,1,1.74,1.74A1.741,1.741,0,0,1,1533.11,5683.26Zm-13.71,0a1.745,1.745,0,1,1,1.74,1.74A1.741,1.741,0,0,1,1519.4,5683.26Zm-13.49,0a1.74,1.74,0,1,1,1.74,1.74A1.741,1.741,0,0,1,1505.91,5683.26Zm-13.71,0a1.74,1.74,0,1,1,1.74,1.74A1.741,1.741,0,0,1,1492.2,5683.26Zm-13.49,0a1.74,1.74,0,1,1,1.74,1.74A1.741,1.741,0,0,1,1478.71,5683.26Zm-13.71,0a1.74,1.74,0,1,1,1.74,1.74A1.741,1.741,0,0,1,1465,5683.26Zm122.52-16.51a1.74,1.74,0,1,1,1.74,1.74A1.733,1.733,0,0,1,1587.52,5666.75Zm-13.71,0a1.74,1.74,0,1,1,1.74,1.74A1.733,1.733,0,0,1,1573.81,5666.75Zm-13.49,0a1.74,1.74,0,1,1,1.74,1.74A1.733,1.733,0,0,1,1560.32,5666.75Zm-13.71,0a1.74,1.74,0,1,1,1.74,1.74A1.733,1.733,0,0,1,1546.61,5666.75Zm-13.5,0a1.745,1.745,0,1,1,1.74,1.74A1.733,1.733,0,0,1,1533.11,5666.75Zm-13.71,0a1.745,1.745,0,1,1,1.74,1.74A1.733,1.733,0,0,1,1519.4,5666.75Zm-13.49,0a1.74,1.74,0,1,1,1.74,1.74A1.733,1.733,0,0,1,1505.91,5666.75Zm-13.71,0a1.74,1.74,0,1,1,1.74,1.74A1.733,1.733,0,0,1,1492.2,5666.75Zm-13.49,0a1.74,1.74,0,1,1,1.74,1.74A1.733,1.733,0,0,1,1478.71,5666.75Zm-13.71,0a1.74,1.74,0,1,1,1.74,1.74A1.733,1.733,0,0,1,1465,5666.75Zm122.52-16.5a1.74,1.74,0,1,1,1.74,1.73A1.741,1.741,0,0,1,1587.52,5650.25Zm-13.71,0a1.74,1.74,0,1,1,1.74,1.73A1.741,1.741,0,0,1,1573.81,5650.25Zm-13.49,0a1.74,1.74,0,1,1,1.74,1.73A1.741,1.741,0,0,1,1560.32,5650.25Zm-13.71,0a1.74,1.74,0,1,1,1.74,1.73A1.741,1.741,0,0,1,1546.61,5650.25Zm-13.5,0a1.745,1.745,0,1,1,1.74,1.73A1.741,1.741,0,0,1,1533.11,5650.25Zm-13.71,0a1.745,1.745,0,1,1,1.74,1.73A1.741,1.741,0,0,1,1519.4,5650.25Zm-13.49,0a1.74,1.74,0,1,1,1.74,1.73A1.741,1.741,0,0,1,1505.91,5650.25Zm-13.71,0a1.74,1.74,0,1,1,1.74,1.73A1.741,1.741,0,0,1,1492.2,5650.25Zm-13.49,0a1.74,1.74,0,1,1,1.74,1.73A1.741,1.741,0,0,1,1478.71,5650.25Zm-13.71,0a1.74,1.74,0,1,1,1.74,1.73A1.741,1.741,0,0,1,1465,5650.25Zm122.52-16.51a1.74,1.74,0,1,1,1.74,1.74A1.741,1.741,0,0,1,1587.52,5633.74Zm-13.71,0a1.74,1.74,0,1,1,1.74,1.74A1.741,1.741,0,0,1,1573.81,5633.74Zm-13.49,0a1.74,1.74,0,1,1,1.74,1.74A1.741,1.741,0,0,1,1560.32,5633.74Zm-13.71,0a1.74,1.74,0,1,1,1.74,1.74A1.741,1.741,0,0,1,1546.61,5633.74Zm-13.5,0a1.745,1.745,0,1,1,1.74,1.74A1.741,1.741,0,0,1,1533.11,5633.74Zm-13.71,0a1.745,1.745,0,1,1,1.74,1.74A1.741,1.741,0,0,1,1519.4,5633.74Zm-13.49,0a1.74,1.74,0,1,1,1.74,1.74A1.741,1.741,0,0,1,1505.91,5633.74Zm-13.71,0a1.74,1.74,0,1,1,1.74,1.74A1.741,1.741,0,0,1,1492.2,5633.74Zm-13.49,0a1.74,1.74,0,1,1,1.74,1.74A1.741,1.741,0,0,1,1478.71,5633.74Zm-13.71,0a1.74,1.74,0,1,1,1.74,1.74A1.741,1.741,0,0,1,1465,5633.74Z" transform="translate(-1465 -5632)"/>
</svg>
