<svg xmlns="http://www.w3.org/2000/svg" width="20" height="20" viewBox="0 0 20 20">
  <defs>
    <style>
      .cls-1 {
        fill: #fe3e57;
        fill-rule: evenodd;
      }
    </style>
  </defs>
  <path id="checkmark" class="cls-1" d="M420.071,1655.48a10,10,0,1,0,2.929,7.07A9.931,9.931,0,0,0,420.071,1655.48ZM413,1671.38a8.83,8.83,0,1,1,8.828-8.83A8.838,8.838,0,0,1,413,1671.38Zm3.949-12.04-5.174,5.18-2.724-2.73a0.587,0.587,0,1,0-.829.83l3.138,3.14a0.59,0.59,0,0,0,.829,0l5.588-5.59A0.586,0.586,0,0,0,416.949,1659.34Z" transform="translate(-403 -1652.56)"/>
</svg>
