<?xml version="1.0" encoding="UTF-8"?>
<svg xmlns="http://www.w3.org/2000/svg" xmlns:xlink="http://www.w3.org/1999/xlink" width="12pt" height="12pt" viewBox="0 0 12 12" version="1.1">
<g id="surface1">
<path style="fill: #fff" d="M 11.550781 1.582031 C 10.953125 0.96875 9.984375 0.96875 9.386719 1.582031 L 3.96875 7.105469 L 2.613281 5.722656 C 2.015625 5.113281 1.046875 5.113281 0.449219 5.722656 C -0.148438 6.332031 -0.148438 7.324219 0.449219 7.933594 L 2.886719 10.417969 C 3.484375 11.027344 4.453125 11.027344 5.050781 10.417969 L 11.550781 3.789062 C 12.148438 3.179688 12.148438 2.191406 11.550781 1.582031 Z M 11.011719 3.238281 C 11.011719 3.238281 4.613281 9.765625 4.511719 9.867188 C 4.210938 10.171875 3.726562 10.171875 3.425781 9.867188 C 3.425781 9.867188 0.976562 7.363281 0.96875 7.355469 C 0.691406 7.050781 0.699219 6.574219 0.988281 6.277344 C 1.289062 5.972656 1.773438 5.972656 2.074219 6.277344 L 3.96875 8.210938 L 9.925781 2.132812 C 10.226562 1.828125 10.710938 1.828125 11.011719 2.132812 C 11.308594 2.4375 11.308594 2.933594 11.011719 3.238281 Z M 11.011719 3.238281 "/>
</g>
</svg>
