<svg xmlns="http://www.w3.org/2000/svg" width="20" height="20" viewBox="0 0 20 20">
  <defs>
    <style>
      .cls-1 {
        fill: #29282d;
        fill-rule: evenodd;
      }
    </style>
  </defs>
  <path id="heart_icon" class="cls-1" d="M1479.78,87.589a6.683,6.683,0,0,0-4.17-4.371c-1.71-.595-3.75,0-5.58,1.611-1.83-1.57-3.88-2.122-5.58-1.57a6.884,6.884,0,0,0-4.17,4.371c-0.47,1.57-.51,4.117,1.95,7.215,1.11,1.4,2.82,3.4,4.22,4.966,2.68,3.014,3.11,3.183,3.49,3.183h0.17c0.39,0,.77-0.169,3.45-3.225,1.41-1.613,3.11-3.609,4.22-4.966C1480.25,91.706,1480.25,89.159,1479.78,87.589Zm-3.28,6.2c-1.96,2.462-5.32,6.324-6.47,7.386-1.15-1.062-4.52-4.924-6.48-7.386-1.61-1.994-2.21-3.947-1.7-5.687a4.986,4.986,0,0,1,3.11-3.225c1.23-.467,2.9.169,4.43,1.655a0.84,0.84,0,0,0,1.06.126,0.447,0.447,0,0,0,.22-0.169c1.53-1.443,3.19-2.079,4.42-1.655a5.168,5.168,0,0,1,3.11,3.268C1478.71,89.8,1478.12,91.79,1476.5,93.784Z" transform="translate(-1460.03 -83)"/>
</svg>
